<svg width="30" height="30" viewBox="0 0 30 30" fill="none" xmlns="http://www.w3.org/2000/svg">
<g clip-path="url(#clip0_112_3)">
<rect width="30" height="30" fill="black"/>
<rect y="23" width="30" height="7" fill="url(#paint0_linear_112_3)"/>
<path d="M5.74729 25C5.05293 25 4.70575 24.6528 4.70575 23.9585C4.70575 23.2641 5.05293 22.9169 5.74729 22.9169C10.3764 22.9169 13.5589 22.5697 15.2948 21.8754C16.1049 21.5513 16.51 21.2157 16.51 20.8685C16.51 20.5213 16.2206 20.2089 15.642 19.9311C15.0865 19.6534 14.1375 19.2946 12.7951 18.8549C11.4758 18.4151 10.469 18.0448 9.77461 17.7439C6.39537 16.332 4.70575 14.1911 4.70575 11.321C4.70575 9.44622 5.51584 7.87233 7.13602 6.59933C8.75621 5.30318 10.7004 4.65511 12.9687 4.65511C14.2185 4.65511 15.2601 5.02543 16.0933 5.76609C16.9497 6.50675 17.3779 7.39785 17.3779 8.4394C17.3779 9.48094 16.9729 10.4068 16.1628 11.2169C15.3527 12.0269 14.7972 12.432 14.4963 12.432C13.8019 12.432 13.4547 12.0848 13.4547 11.3904C13.4547 11.0896 13.7556 10.6382 14.3574 10.0364C14.9823 9.41151 15.2948 8.93702 15.2948 8.61299C15.2948 8.05749 15.0749 7.60616 14.6352 7.25897C14.2185 6.91179 13.6746 6.7382 13.0034 6.7382C11.2906 6.7382 9.8209 7.17797 8.59419 8.05749C7.39062 8.91388 6.78884 9.95543 6.78884 11.1821C6.78884 12.4088 7.12445 13.3694 7.79567 14.0638C8.49004 14.7581 9.26541 15.2905 10.1218 15.6608C11.0013 16.008 11.8809 16.332 12.7604 16.6329C13.6399 16.9106 14.369 17.1652 14.9476 17.3967C15.5494 17.605 16.1512 17.8712 16.753 18.1952C17.9797 18.8664 18.593 19.746 18.593 20.8338C18.593 22.2457 17.5746 23.2988 15.5378 23.9932C13.5242 24.6644 10.2607 25 5.74729 25ZM25.2058 22.3614C25.5761 22.3614 25.958 22.5234 26.3515 22.8475C26.745 23.1715 26.9417 23.5187 26.9417 23.889C26.9417 24.2593 26.7797 24.5371 26.4556 24.7223C26.1548 24.9074 25.8191 25 25.4488 25C25.0785 25 24.766 24.838 24.5114 24.5139C24.28 24.1668 24.1642 23.7964 24.1642 23.403C24.1642 22.7086 24.5114 22.3614 25.2058 22.3614Z" fill="white"/>
</g>
<defs>
<linearGradient id="paint0_linear_112_3" x1="0" y1="26.5" x2="30" y2="26.5" gradientUnits="userSpaceOnUse">
<stop stop-color="#FF0000"/>
<stop offset="1" stop-color="#0048FF"/>
</linearGradient>
<clipPath id="clip0_112_3">
<rect width="30" height="30" fill="white"/>
</clipPath>
</defs>
</svg>
