<svg width="86" height="98" viewBox="0 0 86 98" fill="none" xmlns="http://www.w3.org/2000/svg">
<g clip-path="url(#clip0_13_36)">
<path d="M9.53822 86.1718L1.987 0.0684814H84.9572L77.3994 86.1575L43.4213 95.7356L9.53822 86.1718Z" fill="#1572B6"/>
<path d="M43.4735 88.4152L70.9282 80.6765L77.3873 7.1095H43.4735V88.4152Z" fill="#33A9DC"/>
<path d="M43.4726 38.3041H57.2171L58.1675 27.4905H43.4726V16.9302H69.519L69.27 19.7632L66.7175 48.8635H43.4726V38.3041Z" fill="white"/>
<path d="M43.535 65.73L43.4893 65.7432L31.9214 62.567L31.181 54.1447H20.7555L22.2113 70.7257L43.4875 76.7303L43.536 76.716L43.535 65.73Z" fill="#EBEBEB"/>
<path d="M56.3351 48.4169L55.0835 62.5593L43.4988 65.7384V76.7254L64.7928 70.7256L64.9494 68.9412L66.7568 48.4169H56.3351Z" fill="white"/>
<path d="M43.5089 16.9302V27.4896H18.4193L18.2104 25.1164L17.7375 19.7632L17.4885 16.9302H43.5089ZM43.4725 38.305V48.8654H32.051L31.843 46.4922L31.3693 41.138L31.1203 38.305H43.4725Z" fill="#EBEBEB"/>
</g>
<defs>
<clipPath id="clip0_13_36">
<rect width="85" height="97" fill="white" transform="translate(0.494659 0.0893555)"/>
</clipPath>
</defs>
</svg>
