<svg width="54" height="43" viewBox="0 0 54 43" fill="none" xmlns="http://www.w3.org/2000/svg">
<path d="M34.9162 0.735048C35.5968 0.735048 36.4509 0.913747 37.1368 1.08193C39.5282 1.66008 42.3638 2.3775 44.3768 3.88857C46.2505 5.29451 47.7063 7.74637 48.8311 10.2377C51.17 15.4278 52.7966 22.3472 53.359 27.6083C53.6271 30.1048 53.6928 32.6171 53.2119 34.3069C52.9754 35.1373 52.4629 35.7628 52.1029 36.1464C51.0044 37.3106 49.5906 38.1805 48.1925 38.9715L47.4987 39.363C47.0418 39.6173 46.5819 39.8661 46.1191 40.1094L44.7473 40.8189L42.8631 41.7571L41.3468 42.5034C40.7919 42.7813 40.1565 42.8539 39.5532 42.7083C38.9499 42.5627 38.4176 42.2083 38.0506 41.7078C37.6836 41.2074 37.5056 40.5932 37.548 39.974C37.5905 39.3548 37.8507 38.7707 38.2826 38.325L37.1421 36.0439C33.863 37.0428 30.4523 37.5424 27.0245 37.5261C23.4243 37.5261 19.9895 37.0005 16.907 36.0439L15.7691 38.3197C16.2026 38.7647 16.4644 39.3488 16.5082 39.9684C16.552 40.5881 16.3748 41.2032 16.0082 41.7047C15.6416 42.2061 15.1091 42.5615 14.5054 42.7077C13.9016 42.8539 13.2656 42.7815 12.7102 42.5034L11.2806 41.7939C9.6933 41.0107 8.10603 40.2276 6.56081 39.363C4.94726 38.4616 3.23647 37.5025 1.95667 36.1438C1.44619 35.6274 1.06604 34.9968 0.847683 34.3043C0.364144 32.6171 0.43247 30.1074 0.697891 27.6083C1.26027 22.3472 2.88696 15.4278 5.22845 10.2377C6.35057 7.74637 7.80645 5.29451 9.68017 3.88857C11.6932 2.3775 14.5287 1.66008 16.9201 1.08193C17.606 0.913747 18.4575 0.735048 19.1407 0.735048C19.5187 0.734721 19.8922 0.815923 20.236 0.973113C20.5797 1.1303 20.8854 1.35978 21.1324 1.6459C21.3793 1.93201 21.5617 2.26803 21.6669 2.63102C21.7722 2.99401 21.7979 3.37544 21.7424 3.74929C23.4915 3.49379 25.2568 3.36469 27.0245 3.36298C28.8404 3.36298 30.6143 3.49438 32.3172 3.75191C32.2612 3.37787 32.2866 2.99616 32.3917 2.63284C32.4968 2.26952 32.679 1.93317 32.926 1.64676C33.173 1.36034 33.4789 1.13061 33.8229 0.973268C34.1668 0.815922 34.538 0.734665 34.9162 0.735048ZM38.4744 6.94485C38.0802 6.81871 37.9856 6.8739 37.8437 7.11041L37.6808 7.40474C37.256 8.13284 36.6111 8.70733 35.839 9.04547C35.0668 9.38361 34.2073 9.46795 33.3841 9.28634C31.2941 8.83759 29.1621 8.61382 27.0245 8.61884C24.7855 8.61884 22.6438 8.85536 20.6649 9.28634C19.8418 9.46795 18.9822 9.38361 18.2101 9.04547C17.4379 8.70733 16.793 8.13284 16.3683 7.40474L16.2053 7.11304C16.066 6.87653 15.9714 6.82134 15.5799 6.94485C14.6443 7.24181 13.6405 7.55979 12.8337 8.09326C12.0795 8.65826 11.073 10.0642 10.0192 12.4004C8.00617 16.86 6.42941 23.4483 5.92485 28.168C5.81973 29.1666 5.76192 30.0181 5.75141 30.7224V31.495C5.76367 31.9628 5.79433 32.3324 5.84338 32.604C6.51088 33.2557 7.33605 33.7682 8.16385 34.2386L9.9561 35.2293L11.1282 35.8469L12.0847 33.9337C11.6216 33.5022 11.3298 32.918 11.263 32.2885C11.1961 31.659 11.3588 31.0266 11.721 30.5074C12.0832 29.9883 12.6206 29.6173 13.2344 29.4627C13.8483 29.3081 14.4973 29.3803 15.0622 29.666C18.2577 31.2716 22.4151 32.2702 27.0245 32.2702C31.6339 32.2702 35.7913 31.2664 38.9869 29.6686C39.5276 29.3977 40.1453 29.3216 40.7356 29.4532C41.3259 29.5847 41.8528 29.9159 42.2273 30.3908C42.6019 30.8657 42.8012 31.4552 42.7915 32.06C42.7819 32.6647 42.564 33.2476 42.1745 33.7103L41.9643 33.9337L42.9209 35.8521C43.704 35.4439 44.4898 35.0208 45.2781 34.5828C46.303 34.0152 47.3805 33.4186 48.2135 32.604C48.2608 32.3324 48.2915 31.9628 48.3055 31.495V30.7224C48.2855 29.8679 48.2277 29.0147 48.1321 28.1654C47.6275 23.4483 46.0508 16.86 44.0378 12.3978C42.9866 10.0642 41.9775 8.65826 41.2259 8.09326C40.4165 7.55979 39.4126 7.24181 38.4744 6.94485ZM18.4837 17.8166C19.7034 17.8166 20.8732 18.3011 21.7356 19.1636C22.5981 20.026 23.0826 21.1958 23.0826 22.4155C23.0826 23.6352 22.5981 24.8049 21.7356 25.6674C20.8732 26.5299 19.7034 27.0144 18.4837 27.0144C17.264 27.0144 16.0943 26.5299 15.2318 25.6674C14.3694 24.8049 13.8849 23.6352 13.8849 22.4155C13.8849 21.1958 14.3694 20.026 15.2318 19.1636C16.0943 18.3011 17.264 17.8166 18.4837 17.8166ZM35.5653 17.8166C36.785 17.8166 37.9547 18.3011 38.8172 19.1636C39.6797 20.026 40.1642 21.1958 40.1642 22.4155C40.1642 23.6352 39.6797 24.8049 38.8172 25.6674C37.9547 26.5299 36.785 27.0144 35.5653 27.0144C34.3456 27.0144 33.1759 26.5299 32.3134 25.6674C31.4509 24.8049 30.9664 23.6352 30.9664 22.4155C30.9664 21.1958 31.4509 20.026 32.3134 19.1636C33.1759 18.3011 34.3456 17.8166 35.5653 17.8166Z" fill="white"/>
</svg>
