<svg width="98" height="98" viewBox="0 0 98 98" fill="none" xmlns="http://www.w3.org/2000/svg">
<g clip-path="url(#clip0_13_64)">
<path d="M74.4994 0H22.9207C10.3533 0 0.165375 10.1879 0.165375 22.7553V74.334C0.165375 86.9015 10.3533 97.0894 22.9207 97.0894H74.4994C87.0668 97.0894 97.2547 86.9015 97.2547 74.334V22.7553C97.2547 10.1879 87.0668 0 74.4994 0Z" fill="#1C1717"/>
<mask id="mask0_13_64" style="mask-type:luminance" maskUnits="userSpaceOnUse" x="23" y="10" width="51" height="77">
<path d="M23.3 10.6191H73.8775V86.4702H23.3V10.6191Z" fill="white"/>
</mask>
<g mask="url(#mask0_13_64)">
<path d="M35.947 86.4702C42.9253 86.4702 48.5887 80.8068 48.5887 73.8285V61.1864H35.947C28.9687 61.1864 23.3049 66.8502 23.3049 73.8285C23.3049 80.8068 28.9687 86.4702 35.947 86.4702Z" fill="#0ACF83"/>
<path d="M23.3049 48.5447C23.3049 41.5664 28.9687 35.903 35.947 35.903H48.5887V61.1864H35.947C28.9687 61.1864 23.3049 55.523 23.3049 48.5447Z" fill="#A259FF"/>
<path d="M23.3053 23.2609C23.3053 16.2826 28.9691 10.6191 35.9474 10.6191H48.5891V35.903H35.9474C28.9691 35.903 23.3053 30.2392 23.3053 23.2609Z" fill="#F24E1E"/>
<path d="M48.5887 10.6191H61.2304C68.2087 10.6191 73.8725 16.2826 73.8725 23.2609C73.8725 30.2392 68.2087 35.903 61.2304 35.903H48.5887V10.6191Z" fill="#FF7262"/>
<path d="M73.8725 48.5447C73.8725 55.523 68.2087 61.1864 61.2304 61.1864C54.2521 61.1864 48.5887 55.523 48.5887 48.5447C48.5887 41.5664 54.2521 35.903 61.2304 35.903C68.2087 35.903 73.8725 41.5664 73.8725 48.5447Z" fill="#1ABCFE"/>
</g>
</g>
<defs>
<clipPath id="clip0_13_64">
<rect width="97.0894" height="97.0894" fill="white" transform="translate(0.0893555)"/>
</clipPath>
</defs>
</svg>
