<svg width="45" height="44" viewBox="0 0 45 44" fill="none" xmlns="http://www.w3.org/2000/svg">
<path d="M22.0524 0C19.1565 0 16.2889 0.570403 13.6133 1.67864C10.9378 2.78688 8.50677 4.41125 6.45901 6.45901C2.32337 10.5946 0 16.2038 0 22.0524C0 31.7996 6.32905 40.0693 15.0839 43.0023C16.1865 43.1787 16.5393 42.495 16.5393 41.8996V38.1728C10.4308 39.4959 9.12971 35.2177 9.12971 35.2177C8.1153 32.6597 6.68189 31.976 6.68189 31.976C4.67512 30.6088 6.83626 30.6529 6.83626 30.6529C9.0415 30.8073 10.2103 32.9243 10.2103 32.9243C12.1288 36.2763 15.3705 35.2839 16.6275 34.7546C16.826 33.3212 17.3994 32.3509 18.0168 31.7996C13.1212 31.2483 7.98298 29.3518 7.98298 20.9498C7.98298 18.502 8.82097 16.5393 10.2544 14.9736C10.0339 14.4223 9.26202 12.1288 10.4749 9.15176C10.4749 9.15176 12.3273 8.55634 16.5393 11.4011C18.2815 10.916 20.178 10.6734 22.0524 10.6734C23.9269 10.6734 25.8234 10.916 27.5655 11.4011C31.7776 8.55634 33.63 9.15176 33.63 9.15176C34.8428 12.1288 34.071 14.4223 33.8505 14.9736C35.2839 16.5393 36.1219 18.502 36.1219 20.9498C36.1219 29.3738 30.9616 31.2262 26.0439 31.7776C26.8378 32.4612 27.5655 33.8064 27.5655 35.8573V41.8996C27.5655 42.495 27.9184 43.2007 29.0431 43.0023C37.7979 40.0472 44.1049 31.7996 44.1049 22.0524C44.1049 19.1565 43.5345 16.2889 42.4262 13.6133C41.318 10.9378 39.6936 8.50677 37.6459 6.45901C35.5981 4.41125 33.1671 2.78688 30.4915 1.67864C27.816 0.570403 24.9484 0 22.0524 0Z" fill="white"/>
</svg>
