<svg width="97" height="98" viewBox="0 0 97 98" fill="none" xmlns="http://www.w3.org/2000/svg">
<g clip-path="url(#clip0_13_22)">
<path d="M90.4917 -0.108398L82.7751 87.0578L48.0886 96.754L13.4976 87.0711L5.78903 -0.108398H90.4917Z" fill="#E44D26"/>
<path d="M48.1403 89.3425L76.1688 81.5074L82.7628 7.01978H48.1403V89.3425Z" fill="#F16529"/>
<path d="M33.1394 28.4045H48.1403V17.7123H21.5508L21.8045 20.5808L24.4109 50.0457H48.1403V39.3535H34.1086L33.1394 28.4045ZM35.5294 55.392H24.8847L26.3701 72.1804L48.0915 78.2602L48.1403 78.2468V67.1224L48.0938 67.1348L36.2844 63.9194L35.5294 55.392Z" fill="#EBEBEB"/>
<path d="M48.1037 50.0457H61.1612L59.9301 63.9128L48.1034 67.1314V78.2552L69.842 72.1804L70.0014 70.3739L72.4935 42.2247L72.7522 39.3535H48.1037V50.0457ZM48.1037 28.3784V28.4045H73.7171L73.9295 26.0014L74.413 20.5808L74.6663 17.7123H48.1037V28.3784Z" fill="white"/>
</g>
<defs>
<clipPath id="clip0_13_22">
<rect width="96.4053" height="97.2087" fill="white" transform="translate(0.0893555 0.0893555)"/>
</clipPath>
</defs>
</svg>
