<svg width="46" height="45" viewBox="0 0 46 45" fill="none" xmlns="http://www.w3.org/2000/svg">
<path d="M13.7354 0.0490112H32.2594C39.3162 0.0490112 45.0498 5.78264 45.0498 12.8394V31.3635C45.0498 34.7557 43.7023 38.009 41.3036 40.4077C38.9049 42.8063 35.6516 44.1539 32.2594 44.1539H13.7354C6.67858 44.1539 0.944946 38.4202 0.944946 31.3635V12.8394C0.944946 9.4472 2.2925 6.1939 4.69117 3.79524C7.08984 1.39657 10.3431 0.0490112 13.7354 0.0490112ZM13.2943 4.4595C11.1888 4.4595 9.16951 5.29591 7.68068 6.78474C6.19185 8.27357 5.35543 10.2929 5.35543 12.3984V31.8045C5.35543 36.193 8.90588 39.7434 13.2943 39.7434H32.7005C34.806 39.7434 36.8253 38.907 38.3141 37.4182C39.8029 35.9293 40.6393 33.91 40.6393 31.8045V12.3984C40.6393 8.00994 37.0889 4.4595 32.7005 4.4595H13.2943ZM34.5749 7.76736C35.306 7.76736 36.0071 8.05779 36.5241 8.57474C37.041 9.09169 37.3315 9.79283 37.3315 10.5239C37.3315 11.255 37.041 11.9561 36.5241 12.4731C36.0071 12.9901 35.306 13.2805 34.5749 13.2805C33.8438 13.2805 33.1427 12.9901 32.6257 12.4731C32.1088 11.9561 31.8184 11.255 31.8184 10.5239C31.8184 9.79283 32.1088 9.09169 32.6257 8.57474C33.1427 8.05779 33.8438 7.76736 34.5749 7.76736ZM22.9974 11.0752C25.9217 11.0752 28.7263 12.2369 30.7941 14.3047C32.8619 16.3726 34.0236 19.1771 34.0236 22.1014C34.0236 25.0258 32.8619 27.8303 30.7941 29.8982C28.7263 31.966 25.9217 33.1277 22.9974 33.1277C20.073 33.1277 17.2685 31.966 15.2007 29.8982C13.1329 27.8303 11.9712 25.0258 11.9712 22.1014C11.9712 19.1771 13.1329 16.3726 15.2007 14.3047C17.2685 12.2369 20.073 11.0752 22.9974 11.0752ZM22.9974 15.4857C21.2428 15.4857 19.56 16.1827 18.3194 17.4234C17.0787 18.6641 16.3817 20.3468 16.3817 22.1014C16.3817 23.856 17.0787 25.5388 18.3194 26.7795C19.56 28.0202 21.2428 28.7172 22.9974 28.7172C24.752 28.7172 26.4347 28.0202 27.6754 26.7795C28.9161 25.5388 29.6131 23.856 29.6131 22.1014C29.6131 20.3468 28.9161 18.6641 27.6754 17.4234C26.4347 16.1827 24.752 15.4857 22.9974 15.4857Z" fill="white"/>
</svg>
