<svg width="98" height="98" viewBox="0 0 98 98" fill="none" xmlns="http://www.w3.org/2000/svg">
<g clip-path="url(#clip0_13_44)">
<path d="M0.408813 17.9276C0.408813 7.98647 8.46769 -0.0723877 18.4088 -0.0723877H79.8218C89.7629 -0.0723877 97.8218 7.98649 97.8218 17.9276V79.3406C97.8218 89.2817 89.7629 97.3406 79.8218 97.3406H18.4088C8.46767 97.3406 0.408813 89.2817 0.408813 79.3406V17.9276Z" fill="#F5DE19"/>
<path d="M65.8458 76.0314C66.6772 77.7163 67.967 79.1325 69.5671 80.1171C71.1672 81.1018 73.0126 81.6151 74.8913 81.5979C78.6835 81.5979 81.1084 79.7018 81.1084 77.0751C81.1084 73.944 78.6174 72.8238 74.4425 70.9973L72.1533 70.0162C65.5432 67.2016 61.1596 63.6774 61.1596 56.2253C61.1596 49.3611 66.3781 44.1322 74.5643 44.1322C77.2142 43.9413 79.8617 44.5345 82.1768 45.8381C84.4918 47.1416 86.372 49.0977 87.5829 51.4625L80.4265 56.0374C79.9599 54.865 79.1483 53.862 78.0989 53.1612C77.0496 52.4604 75.8121 52.0948 74.5504 52.1131C73.9999 52.058 73.4439 52.1181 72.9179 52.2897C72.392 52.4614 71.9075 52.7407 71.4954 53.1099C71.0833 53.4791 70.7527 53.9301 70.5246 54.4341C70.2964 54.9381 70.1758 55.4842 70.1703 56.0374C70.1703 58.7824 71.8715 59.8957 75.7994 61.6039L78.0886 62.585C85.8677 65.9214 90.2652 69.3204 90.2652 76.9638C90.2652 85.2056 83.7907 89.7214 75.0966 89.7214C71.7094 89.9351 68.3327 89.165 65.373 87.504C62.4133 85.843 59.9969 83.3619 58.4146 80.3593L65.8458 76.0314ZM33.5082 76.8247C34.9451 79.3748 36.2532 81.5318 39.3982 81.5318C42.4041 81.5318 44.3037 80.3559 44.3037 75.7809V44.654H53.457V75.9027C53.457 85.3796 47.8905 89.6936 39.7879 89.6936C36.9238 89.8502 34.0793 89.1364 31.6284 87.6461C29.1776 86.1559 27.235 83.9589 26.0561 81.3439L33.5082 76.8247Z" fill="black"/>
</g>
<defs>
<clipPath id="clip0_13_44">
<rect width="97.0894" height="97.0894" fill="white" transform="translate(0.494629 0.0893555)"/>
</clipPath>
</defs>
</svg>
