<svg width="98" height="98" viewBox="0 0 98 98" fill="none" xmlns="http://www.w3.org/2000/svg">
<g clip-path="url(#clip0_13_5)">
<path d="M74.4101 0H22.8313C10.2639 0 0.0760193 10.1879 0.0760193 22.7553V74.334C0.0760193 86.9015 10.2639 97.0894 22.8313 97.0894H74.4101C86.9775 97.0894 97.1654 86.9015 97.1654 74.334V22.7553C97.1654 10.1879 86.9775 0 74.4101 0Z" fill="#242938"/>
<path d="M48.621 55.732C52.5289 55.732 55.6964 52.564 55.6964 48.6566C55.6964 44.7491 52.5289 41.5812 48.621 41.5812C44.7132 41.5812 41.5457 44.7491 41.5457 48.6566C41.5457 52.564 44.7136 55.732 48.621 55.732Z" fill="#00D8FF"/>
<path d="M48.6214 34.2706C58.121 34.2706 66.9459 35.6337 73.6 37.9248C81.617 40.6846 86.5462 44.8682 86.5462 48.6565C86.5462 52.6042 81.3224 57.0487 72.7129 59.9011C66.2041 62.0575 57.639 63.1832 48.6214 63.1832C39.376 63.1832 30.6209 62.1265 24.0385 59.8772C15.7108 57.0309 10.6952 52.5291 10.6952 48.6565C10.6952 44.8989 15.4017 40.7476 23.3062 37.9919C29.9848 35.6633 39.0274 34.2706 48.6199 34.2706H48.6214Z" stroke="#00D8FF" stroke-width="3.37954"/>
<path d="M36.098 41.505C40.844 33.2759 46.4331 26.312 51.7419 21.6927C58.1377 16.1264 64.2248 13.9464 67.5061 15.8385C70.9258 17.8107 72.1664 24.5569 70.3365 33.4398C68.9541 40.1552 65.6492 48.137 61.1441 55.949C56.5251 63.9581 51.2364 71.0145 46 75.5913C39.3741 81.3833 32.9681 83.4795 29.6135 81.5449C26.3584 79.6691 25.1137 73.5172 26.6755 65.293C27.9949 58.3439 31.3062 49.8149 36.0965 41.505H36.098Z" stroke="#00D8FF" stroke-width="3.37954"/>
<path d="M36.1098 55.9698C31.3505 47.7498 28.1102 39.4282 26.7578 32.5219C25.1296 24.2007 26.2807 17.8387 29.5593 15.9409C32.976 13.9627 39.4397 16.2572 46.2215 22.279C51.3491 26.8316 56.6143 33.6798 61.1323 41.4841C65.7646 49.4856 69.2363 57.5922 70.5868 64.4143C72.2957 73.0476 70.9126 79.644 67.5611 81.5839C64.3093 83.4665 58.3585 81.4736 52.0131 76.013C46.652 71.3998 40.9161 64.2717 36.1098 55.9698Z" stroke="#00D8FF" stroke-width="3.37954"/>
</g>
<defs>
<clipPath id="clip0_13_5">
<rect width="97.0894" height="97.0894" fill="white"/>
</clipPath>
</defs>
</svg>
