<svg width="98" height="98" viewBox="0 0 98 98" fill="none" xmlns="http://www.w3.org/2000/svg">
<g clip-path="url(#clip0_13_50)">
<path d="M74.5888 0H23.01C10.4426 0 0.25473 10.1879 0.25473 22.7553V74.334C0.25473 86.9015 10.4426 97.0894 23.01 97.0894H74.5888C87.1562 97.0894 97.3441 86.9015 97.3441 74.334V22.7553C97.3441 10.1879 87.1562 0 74.5888 0Z" fill="#CD6799"/>
<mask id="mask0_13_50" style="mask-type:luminance" maskUnits="userSpaceOnUse" x="10" y="20" width="77" height="57">
<path d="M10.8739 20.1005H86.7249V76.9542H10.8739V20.1005Z" fill="white"/>
</mask>
<g mask="url(#mask0_13_50)">
<path d="M76.146 52.7778C73.501 52.7915 71.2028 53.4286 69.278 54.3699C68.5719 52.9716 67.8657 51.7254 67.7409 50.8114C67.6025 49.7453 67.4364 49.0945 67.6025 47.8206C67.7686 46.5466 68.5165 44.733 68.5025 44.5946C68.4884 44.4562 68.3363 43.8054 66.8132 43.7914C65.2902 43.7773 63.9749 44.0822 63.8224 44.4839C63.67 44.8851 63.3795 45.7991 63.1857 46.7408C62.9225 48.1255 60.1391 53.0687 58.547 55.6579C58.0346 54.6472 57.5917 53.7608 57.4946 53.0547C57.3561 51.9886 57.19 51.3378 57.3561 50.0639C57.5223 48.7899 58.2701 46.976 58.2561 46.8375C58.2421 46.6991 58.09 46.0483 56.5669 46.0347C55.0438 46.021 53.7282 46.3252 53.5761 46.7268C53.4236 47.1284 53.2575 48.0701 52.9389 48.9837C52.6208 49.8977 48.9238 58.1503 47.9544 60.2825C47.5628 61.1454 47.1519 61.9994 46.7222 62.844C46.7222 62.844 46.7082 62.8857 46.6668 62.9547C46.5317 63.2196 46.3931 63.4827 46.2512 63.744V63.758C46.0437 64.132 45.8218 64.4778 45.7111 64.4778C45.628 64.4778 45.476 63.4812 45.7388 62.1242C46.2929 59.2578 47.6081 54.7992 47.5945 54.6472C47.5945 54.5641 47.8437 53.7885 46.7359 53.3869C45.6557 52.9853 45.2681 53.6501 45.171 53.6501C45.0743 53.6501 45.0049 53.8856 45.0049 53.8856C45.0049 53.8856 46.2098 48.873 42.7066 48.873C40.5187 48.873 37.5002 51.2684 36.0052 53.4286C34.3051 54.3537 32.6064 55.2813 30.9092 56.2116C30.0926 56.6686 29.248 57.1256 28.4584 57.5549C28.403 57.4995 28.3477 57.4301 28.2923 57.3748C24.0553 52.8468 16.2183 49.6486 16.5505 43.5699C16.6753 41.3543 17.4369 35.5388 31.6017 28.477C43.2604 22.7309 52.5377 24.323 54.1438 27.8539C56.4421 32.8942 49.1729 42.2542 37.1267 43.6112C32.5293 44.1236 30.1203 42.3513 29.5112 41.6869C28.8741 40.9943 28.777 40.953 28.5415 41.0914C28.1539 41.2989 28.403 41.922 28.5415 42.2819C28.9018 43.2236 30.3831 44.8851 32.8892 45.702C35.1049 46.4222 40.491 46.8239 47.0127 44.3037C54.31 41.479 60.0147 33.6277 58.3392 27.051C56.664 20.3769 45.5867 18.1753 35.1049 21.9C28.8737 24.1156 22.1169 27.6047 17.2567 32.1463C11.4826 37.5469 10.5689 42.2406 10.9429 44.2066C12.2858 51.1853 21.909 55.7269 25.7585 59.0917C25.5647 59.2024 25.3845 59.2995 25.2325 59.3825C23.3077 60.3379 15.9691 64.1733 14.1411 68.2306C12.0643 72.8275 14.4737 76.1229 16.0659 76.5658C21.0091 77.9368 26.0907 75.4721 28.8187 71.4011C31.5467 67.3302 31.2141 62.0411 29.9538 59.6181C29.9401 59.5875 29.9214 59.5594 29.8984 59.535C30.3972 59.2441 30.9091 58.9396 31.4079 58.6487C32.3242 58.1072 33.2521 57.5855 34.1908 57.0839C33.7202 58.3718 33.3739 59.9086 33.2078 62.1242C33.0004 64.7274 34.0665 68.1058 35.4648 69.4351C36.0879 70.0165 36.8217 70.0305 37.2928 70.0305C38.9266 70.0305 39.6605 68.6735 40.4774 67.0674C41.4741 65.101 42.3744 62.8163 42.3744 62.8163C42.3744 62.8163 41.2526 68.9921 44.2988 68.9921C45.4066 68.9921 46.528 67.5521 47.0267 66.8182V66.8319C47.0267 66.8319 47.0544 66.7905 47.1098 66.6934C47.2205 66.5133 47.2896 66.4026 47.2896 66.4026V66.3749C47.7329 65.5997 48.7296 63.8411 50.2113 60.9193C52.122 57.1533 53.9637 52.4456 53.9637 52.4456C53.9637 52.4456 54.1298 53.5947 54.6976 55.5054C55.0298 56.6272 55.7223 57.8594 56.276 59.0503C55.833 59.6734 55.5562 60.0193 55.5562 60.0193L55.5698 60.0333C55.2099 60.504 54.8223 61.0164 54.393 61.5147C52.8836 63.315 51.0836 65.3782 50.8345 65.9736C50.5436 66.6798 50.613 67.1918 51.1667 67.6074C51.5683 67.912 52.2881 67.9533 53.022 67.912C54.379 67.8149 55.3347 67.4827 55.8054 67.2748C56.5392 67.012 57.3979 66.6104 58.2007 66.015C59.6825 64.9212 60.5825 63.3564 60.4994 61.2932C60.4577 60.1577 60.0837 59.0226 59.6271 57.9562C59.7655 57.7624 59.8899 57.5686 60.0284 57.3748C62.3688 53.9546 64.1824 50.2023 64.1824 50.2023C64.1824 50.2023 64.3485 51.3514 64.9162 53.2625C65.1931 54.2315 65.7608 55.2839 66.2595 56.3087C64.058 58.095 62.701 60.1718 62.2163 61.5287C61.344 64.0489 62.0225 65.184 63.3101 65.4472C63.8918 65.572 64.7224 65.2951 65.3319 65.0319C66.1071 64.7828 67.0211 64.3534 67.8934 63.7163C69.3747 62.6225 70.8011 61.0994 70.7181 59.0363C70.6763 58.095 70.4272 57.1669 70.0809 56.267C71.9503 55.4918 74.3597 55.0624 77.4335 55.4224C84.0246 56.1979 85.3262 60.3102 85.0767 62.0411C84.8275 63.7717 83.4428 64.7134 82.9858 65.0042C82.5292 65.2951 82.3767 65.3918 82.4185 65.5997C82.4738 65.9042 82.6953 65.8902 83.0829 65.8348C83.623 65.7381 86.5444 64.4365 86.6692 61.2519C86.877 57.181 82.9999 52.7361 76.146 52.7778ZM25.3015 69.9198C23.1139 72.3011 20.0678 73.2015 18.7521 72.4399C17.3398 71.6226 17.8935 68.1058 20.5801 65.5856C22.2136 64.0489 24.3185 62.6225 25.7168 61.7502C26.0353 61.5564 26.506 61.2796 27.0737 60.9333C27.1708 60.8779 27.2262 60.8503 27.2262 60.8503L27.5584 60.6424C28.5415 64.2427 27.5998 67.4137 25.3015 69.9198ZM41.2253 59.0917C40.4637 60.9473 38.8716 65.6964 37.9022 65.4336C37.0717 65.2117 36.5593 61.6118 37.7361 58.0532C38.3316 56.267 39.5914 54.1348 40.3253 53.3038C41.5162 51.9745 42.8314 51.5316 43.15 52.0716C43.5516 52.7778 41.6963 57.9285 41.2253 59.0917ZM54.3657 65.3782C54.0471 65.5443 53.7426 65.655 53.6042 65.572C53.5071 65.5166 53.7426 65.2951 53.7426 65.2951C53.7426 65.2951 55.3905 63.5225 56.0413 62.7196C56.4148 62.2486 56.8582 61.6949 57.3288 61.0717V61.2519C57.3288 63.3704 55.2797 64.7964 54.3657 65.3782ZM64.5013 63.0655C64.2658 62.8994 64.3075 62.3457 65.0967 60.6147C65.4013 59.9362 66.1215 58.8011 67.3537 57.707C67.4921 58.1503 67.5892 58.5793 67.5752 58.9809C67.5615 61.6535 65.6505 62.6502 64.5013 63.0655Z" fill="white"/>
</g>
</g>
<defs>
<clipPath id="clip0_13_50">
<rect width="97.0894" height="97.0894" fill="white" transform="translate(0.178711)"/>
</clipPath>
</defs>
</svg>
