<svg width="98" height="98" viewBox="0 0 98 98" fill="none" xmlns="http://www.w3.org/2000/svg">
<g clip-path="url(#clip0_13_47)">
<path d="M16.4727 35.4108H93.9996V92.7139H16.4727V35.4108Z" fill="white"/>
<path d="M0.00598145 48.5641V97.1788H97.2354V-0.0506592H0.00598145V48.5641ZM78.3574 44.6749C80.6861 45.2153 82.8027 46.4333 84.44 48.1752C85.3413 49.1137 86.1249 50.1585 86.7736 51.2865C86.7736 51.4109 82.5732 54.25 80.0142 55.8368C79.9208 55.8991 79.5475 55.4946 79.1352 54.8801C78.668 54.074 78.0043 53.3994 77.2058 52.9192C76.4074 52.4391 75.5003 52.1691 74.5693 52.1343C71.6213 51.9321 69.7234 53.48 69.739 56.0235C69.7153 56.6567 69.8603 57.2848 70.159 57.8436C70.8046 59.1893 72.0102 59.9905 75.7905 61.6239C82.7521 64.6186 85.7312 66.5943 87.5825 69.4023C89.6515 72.5136 90.1105 77.5384 88.7104 81.2565C87.1547 85.3012 83.3433 88.047 77.9529 88.9571C75.4909 89.2392 73.0034 89.2131 70.5479 88.8793C66.7845 88.2589 63.3178 86.452 60.6538 83.7222C59.7593 82.7344 58.017 80.1598 58.1259 79.9731C58.4093 79.7615 58.7083 79.5717 59.0204 79.4052L62.6218 77.414L65.4142 75.7961L65.9976 76.6595C66.9824 78.0676 68.2353 79.2676 69.6845 80.1909C72.7958 81.8243 77.0428 81.5987 79.143 79.7086C79.8481 79.016 80.288 78.098 80.3861 77.1145C80.4841 76.131 80.2342 75.1442 79.6797 74.326C78.9019 73.2448 77.3462 72.3347 72.9981 70.4368C67.981 68.2744 65.8187 66.9365 63.843 64.8053C62.61 63.3986 61.6994 61.7394 61.175 59.9438C60.7842 57.8922 60.7264 55.7911 61.0039 53.7211C62.0384 48.8752 65.6709 45.4916 70.9757 44.4882C73.4325 44.1847 75.9209 44.2529 78.3574 44.6904V44.6749ZM55.5357 48.7508V52.7333H42.9114V88.6926H33.9585V52.7255H21.3031V48.8363C21.2634 47.4951 21.2946 46.1528 21.3965 44.8149C21.4587 44.7449 29.1748 44.7449 38.5088 44.7449H55.489L55.5357 48.7508Z" fill="#007ACC"/>
</g>
<defs>
<clipPath id="clip0_13_47">
<rect y="0.0893555" width="97.0894" height="97.0894" rx="18" fill="white"/>
</clipPath>
</defs>
</svg>
