<svg width="98" height="98" viewBox="0 0 98 98" fill="none" xmlns="http://www.w3.org/2000/svg">
<g clip-path="url(#clip0_13_14)">
<path d="M74.6781 0H23.0994C10.532 0 0.344086 10.1879 0.344086 22.7553V74.334C0.344086 86.9015 10.532 97.0894 23.0994 97.0894H74.6781C87.2455 97.0894 97.4334 86.9015 97.4334 74.334V22.7553C97.4334 10.1879 87.2455 0 74.6781 0Z" fill="#0073AA"/>
<path d="M16.3539 48.5424C16.3539 61.42 23.8378 72.5489 34.6898 77.8228L19.1706 35.3022C17.3107 39.4683 16.3509 43.98 16.3539 48.5424ZM70.8506 46.9006C70.8506 42.8801 69.4064 40.0956 68.1678 37.9282C66.5184 35.2484 64.9725 32.9789 64.9725 30.2991C64.9725 27.3083 67.2409 24.5245 70.4357 24.5245C70.5802 24.5245 70.7167 24.5424 70.8574 24.5503C65.0693 19.2476 57.3579 16.0099 48.8876 16.0099C37.5221 16.0099 27.5222 21.8413 21.7052 30.6742C22.4683 30.6969 23.1877 30.7132 23.7987 30.7132C27.2018 30.7132 32.4692 30.2998 32.4692 30.2998C34.2229 30.1967 34.43 32.7726 32.6778 32.98C32.6778 32.98 30.9154 33.1875 28.9543 33.2903L40.8015 68.5299L47.9212 47.1767L42.8525 33.2891C41.1007 33.1864 39.4411 32.9789 39.4411 32.9789C37.6878 32.8761 37.8933 30.1956 39.6466 30.2991C39.6466 30.2991 45.0192 30.7117 48.2159 30.7117C51.6186 30.7117 56.8864 30.2991 56.8864 30.2991C58.6416 30.1956 58.8476 32.7715 57.095 32.9789C57.095 32.9789 55.3288 33.1864 53.3715 33.2891L65.1288 68.2618L68.3737 57.4181C69.7804 52.9179 70.8506 49.6859 70.8506 46.9006Z" fill="white"/>
<path d="M49.4588 51.3883L39.6975 79.7528C42.6819 80.6317 45.7769 81.0781 48.888 81.0783C52.5676 81.0795 56.2206 80.4558 59.6914 79.234C59.6012 79.0917 59.5238 78.9417 59.4601 78.7857L49.4588 51.3883ZM77.4349 32.9337C77.5826 34.0426 77.6559 35.1601 77.6541 36.2787C77.6541 39.5802 77.0374 43.2916 75.1802 47.9321L65.2426 76.6641C74.9147 71.0238 81.4205 60.5454 81.4205 48.5431C81.4209 42.8865 79.9763 37.5675 77.4349 32.9337Z" fill="white"/>
<path d="M48.888 10.6191C27.9766 10.6191 10.9632 27.6314 10.9632 48.5424C10.9632 69.4561 27.9766 86.4675 48.888 86.4675C69.7982 86.4675 86.8143 69.4561 86.8143 48.5424C86.8135 27.6314 69.7982 10.6191 48.888 10.6191ZM48.888 84.7294C28.9354 84.7294 12.7021 68.4958 12.7021 48.5424C12.7021 28.5902 28.935 12.358 48.888 12.358C68.8395 12.358 85.0716 28.5902 85.0716 48.5424C85.0716 68.4958 68.8395 84.7294 48.888 84.7294Z" fill="white"/>
</g>
<defs>
<clipPath id="clip0_13_14">
<rect width="97.0894" height="97.0894" fill="white" transform="translate(0.268066)"/>
</clipPath>
</defs>
</svg>
